<svg xmlns="http://www.w3.org/2000/svg" viewBox="0 0 100 100" role="img" aria-hidden="true">
  <path fill="#ec4899" d="M50 88C32 72 14 56 14 36c0-12 9.5-20 21-20 7 0 13.5 3.5 15 9 1.5-5.5 8-9 15-9 11.5 0 21 8 21 20 0 20-18 36-36 52z"/>
  <g fill="none" stroke="#ffffff" stroke-width="2.2" stroke-linecap="round" stroke-linejoin="round">
    <path d="M36 28h7M57 28h7"/>
    <path d="M39.5 28v5.5c0 3.2 2.5 5.8 5.8 5.8h9.4c3.3 0 5.8-2.6 5.8-5.8V28"/>
    <path d="M50 39.3V66"/>
    <ellipse cx="50" cy="72" rx="6.5" ry="6" fill="#ffffff" stroke="#ffffff"/>
    <ellipse cx="50" cy="72" rx="3.5" ry="3.2" fill="none" stroke="#ec4899" stroke-width="1.3"/>
  </g>
  <g transform="translate(56 54)">
    <rect x="6" y="2" width="5" height="22" rx="1" fill="#ffffff" stroke="#ec4899" stroke-width="1.2"/>
    <rect x="-2" y="10.5" width="21" height="5" rx="1" fill="#ffffff" stroke="#ec4899" stroke-width="1.2"/>
  </g>
</svg>
